HIERARCHY
ROOT joint_0
{
	OFFSET 0.000000 0.000000 0.000000
	CHANNELS 6 Xposition Yposition Zposition Zrotation Yrotation Xrotation 
	JOINT joint_1
	{
		OFFSET 7.566162 2.250183 114.799927
		CHANNELS 3 Zrotation Yrotation Xrotation
		JOINT joint_2
		{
			OFFSET -5.201660 -0.414001 104.936035
			CHANNELS 3 Zrotation Yrotation Xrotation
			JOINT joint_3
			{
				OFFSET -6.923584 -0.419739 104.718018
				CHANNELS 3 Zrotation Yrotation Xrotation
				JOINT joint_4
				{
					OFFSET 3.108887 2.881104 149.449951
					CHANNELS 3 Zrotation Yrotation Xrotation
					JOINT joint_5
					{
						OFFSET 19.988770 5.920349 90.786987
						CHANNELS 3 Zrotation Yrotation Xrotation
						End Site
						{
							OFFSET 0.000000 0.000000 0.000000
						}
					}
				}
				JOINT joint_6
				{
					OFFSET 9.283936 -30.015930 84.410034
					CHANNELS 3 Zrotation Yrotation Xrotation
					JOINT joint_7
					{
						OFFSET 47.243164 -155.716736 -23.241089
						CHANNELS 3 Zrotation Yrotation Xrotation
						JOINT joint_8
						{
							OFFSET 31.323730 -15.356873 -268.798950
							CHANNELS 3 Zrotation Yrotation Xrotation
							JOINT joint_9
							{
								OFFSET 28.122314 -2.114624 -262.450012
								CHANNELS 3 Zrotation Yrotation Xrotation
								End Site
								{
									OFFSET 0.000000 0.000000 0.000000
								}
							}
						}
					}
				}
				JOINT joint_10
				{
					OFFSET -5.580566 33.311218 83.498047
					CHANNELS 3 Zrotation Yrotation Xrotation
					JOINT joint_11
					{
						OFFSET -22.773438 160.515381 -27.138062
						CHANNELS 3 Zrotation Yrotation Xrotation
						JOINT joint_12
						{
							OFFSET 27.004395 30.848877 -267.937988
							CHANNELS 3 Zrotation Yrotation Xrotation
							JOINT joint_13
							{
								OFFSET 32.625000 14.824585 -261.518005
								CHANNELS 3 Zrotation Yrotation Xrotation
								End Site
								{
									OFFSET 0.000000 0.000000 0.000000
								}
							}
						}
					}
				}
			}
		}
	}
	JOINT joint_14
	{
		OFFSET 20.623535 -83.447632 -106.174011
		CHANNELS 3 Zrotation Yrotation Xrotation
		JOINT joint_15
		{
			OFFSET 0.661865 -23.563843 -459.915039
			CHANNELS 3 Zrotation Yrotation Xrotation
			JOINT joint_16
			{
				OFFSET -23.461670 -28.727966 -444.760971
				CHANNELS 3 Zrotation Yrotation Xrotation
				JOINT joint_17
				{
					OFFSET 178.992920 54.047363 -80.113001
					CHANNELS 3 Zrotation Yrotation Xrotation
					End Site
					{
						OFFSET 0.000000 0.000000 0.000000
					}
				}
			}
		}
	}
	JOINT joint_18
	{
		OFFSET -19.571533 84.686279 -105.380005
		CHANNELS 3 Zrotation Yrotation Xrotation
		JOINT joint_19
		{
			OFFSET -22.949951 3.639404 -459.933044
			CHANNELS 3 Zrotation Yrotation Xrotation
			JOINT joint_20
			{
				OFFSET -33.690674 4.092651 -445.010971
				CHANNELS 3 Zrotation Yrotation Xrotation
				JOINT joint_21
				{
					OFFSET 187.419678 18.953857 -76.759001
					CHANNELS 3 Zrotation Yrotation Xrotation
					End Site
					{
						OFFSET 0.000000 0.000000 0.000000
					}
				}
			}
		}
	}
}
MOTION
Frames: 14
Frame Time: 0.016667
-2914.039307 879.119568 1104.163940 -14.035458 7.022286 -0.852196 -0.172014 4.255064 4.546892 -0.750677 -0.720196 -0.842874 -0.620781 0.818836 0.846753 0.253967 -3.992200 0.152982 0.000000 0.000000 0.000000 -1.042479 8.185940 -7.202036 -3.182547 2.869006 -18.966225 4.811722 -64.179147 50.853410 0.000000 0.000000 0.000000 3.743896 10.311842 0.234011 14.320468 12.690401 16.144220 1.929442 -67.170532 -35.347773 0.000000 0.000000 0.000000 -0.501636 -23.368276 -0.520611 -4.859865 50.629730 -7.101161 -16.089319 -12.847029 -1.506691 0.000000 0.000000 0.000000 -0.011393 2.799585 0.063348 0.333360 22.505624 -5.913414 -2.806079 9.182654 -1.901782 0.000000 0.000000 0.000000 
-2903.324707 876.212341 1100.237061 -14.411681 6.600142 -0.866194 -0.015206 5.041710 4.852536 -0.610184 -0.787166 -0.865998 -0.464975 0.920189 0.861927 0.304812 -4.326312 0.134014 0.000000 0.000000 0.000000 -0.991189 7.578000 -7.165919 -3.251141 2.652560 -18.113915 5.091514 -63.665498 52.389779 0.000000 0.000000 0.000000 4.061847 10.710071 0.383981 14.713952 12.850060 15.831960 2.109950 -70.352202 -37.790283 0.000000 0.000000 0.000000 -0.078668 -23.607969 -0.493304 -4.877878 48.191395 -7.983758 -15.338848 -12.461459 -1.469850 0.000000 0.000000 0.000000 0.211588 2.984192 0.212286 0.640901 24.165745 -6.162993 -3.008132 9.509109 -2.000402 0.000000 0.000000 0.000000 
-2892.322266 873.131531 1095.485962 -14.898373 6.123457 -0.865767 0.170030 5.959999 5.136063 -0.417215 -0.843193 -0.887080 -0.256997 1.022971 0.860309 0.366710 -4.748122 0.121713 0.000000 0.000000 0.000000 -0.865906 6.826460 -7.084568 -3.147062 2.437902 -16.973404 5.486710 -62.137197 53.571906 0.000000 0.000000 0.000000 4.361574 11.056609 0.571884 14.944404 12.954934 15.278392 2.187886 -72.894762 -39.945849 0.000000 0.000000 0.000000 0.622966 -23.568528 -0.521867 -4.520545 45.963625 -8.940758 -13.989175 -11.539013 -1.333311 0.000000 0.000000 0.000000 0.477585 3.138784 0.389434 1.003910 26.089713 -6.478535 -3.276090 9.773099 -2.111604 0.000000 0.000000 0.000000 
-2880.649658 869.640686 1089.817993 -15.185377 5.816284 -0.794707 0.260073 6.609758 5.345033 -0.242829 -0.878625 -0.900834 -0.063664 1.097948 0.866091 0.413632 -5.061764 0.124126 0.000000 0.000000 0.000000 -0.691626 6.198873 -6.909163 -3.005499 2.289283 -15.854330 5.841335 -60.484103 54.453982 0.000000 0.000000 0.000000 4.701942 11.367315 0.717041 14.867277 13.030569 14.669095 2.098879 -74.627940 -40.995531 0.000000 0.000000 0.000000 1.375991 -23.076550 -0.808254 -3.984634 44.319190 -9.575030 -12.466291 -10.928431 -0.990215 0.000000 0.000000 0.000000 0.565657 3.067452 0.824487 1.238724 28.407413 -7.156054 -3.908988 9.548252 -2.292105 0.000000 0.000000 0.000000 
-2867.792969 865.402344 1082.583008 -15.130259 5.810787 -0.635047 0.198548 6.710555 5.549240 -0.136119 -0.883074 -0.966426 0.073202 1.120241 0.886547 0.432995 -5.157791 0.121477 0.000000 0.000000 0.000000 -0.526327 5.856616 -6.608391 -2.832025 2.272551 -14.866758 6.120334 -59.262645 54.812602 0.000000 0.000000 0.000000 5.163937 11.824461 0.825262 14.237050 13.194419 13.906095 1.756960 -75.422138 -40.025225 0.000000 0.000000 0.000000 2.189348 -21.906325 -1.480264 -3.223730 43.629329 -9.734860 -10.668882 -11.128262 -0.249730 0.000000 0.000000 0.000000 0.362723 2.760741 1.665947 1.239170 31.135127 -8.382821 -5.124913 8.609711 -2.593135 0.000000 0.000000 0.000000 
-2854.265869 860.754883 1074.431030 -14.824099 5.952802 -0.442763 0.059328 6.577597 5.775212 -0.081715 -0.895548 -1.069441 0.168486 1.121728 0.916575 0.433767 -5.149776 0.130305 0.000000 0.000000 0.000000 -0.317013 5.629720 -6.204225 -2.643044 2.303331 -13.927564 6.354743 -57.999936 54.913949 0.000000 0.000000 0.000000 5.655991 12.244647 0.899749 13.331623 13.329507 13.098522 1.281939 -75.377021 -38.016960 0.000000 0.000000 0.000000 3.007578 -20.239727 -2.307695 -2.327275 43.506145 -9.596706 -8.669410 -11.782646 0.721068 0.000000 0.000000 0.000000 -0.015267 2.283820 2.807739 1.083286 34.194992 -9.896021 -6.814208 7.388009 -3.034570 0.000000 0.000000 0.000000 
-2841.225830 856.482117 1067.218994 -14.407999 6.070619 -0.347328 -0.072114 6.645446 6.023792 -0.017723 -0.960829 -1.149707 0.283637 1.171787 0.958821 0.421540 -5.182197 0.200294 0.000000 0.000000 0.000000 0.091863 5.266381 -5.747537 -2.593257 2.225595 -13.025987 6.500091 -56.003564 55.561499 0.000000 0.000000 0.000000 5.970507 12.139941 0.849606 12.735204 13.142838 12.718479 0.878461 -74.726226 -36.852928 0.000000 0.000000 0.000000 3.525837 -18.670821 -2.890087 -1.737376 43.356508 -9.329254 -7.249375 -12.553716 1.500019 0.000000 0.000000 0.000000 -0.402951 1.510519 4.161541 0.888522 37.619102 -11.337840 -8.766608 6.359875 -3.614698 0.000000 0.000000 0.000000 
-2828.661865 852.551575 1061.337036 -13.990080 6.127390 -0.601565 -0.147389 7.023396 6.632049 0.119639 -1.065122 -1.276029 0.497313 1.277068 1.027132 0.397158 -5.258814 0.323755 0.000000 0.000000 0.000000 0.826047 4.536919 -5.215682 -2.704571 1.881072 -12.073211 6.592491 -52.287986 57.345554 0.000000 0.000000 0.000000 6.029088 11.142544 0.564307 12.698211 12.400110 13.083698 0.592841 -73.261316 -37.495794 0.000000 0.000000 0.000000 3.560465 -17.395913 -2.917617 -1.723794 42.933263 -8.875405 -6.886125 -13.666501 1.978061 0.000000 0.000000 0.000000 -0.799176 0.439024 5.940978 0.630224 41.418197 -12.674970 -11.145105 5.713564 -4.428293 0.000000 0.000000 0.000000 
-2816.586182 848.995667 1056.395020 -13.512104 6.174502 -1.019355 -0.227349 7.586477 7.385467 0.306520 -1.191931 -1.423783 0.784098 1.404095 1.092774 0.361254 -5.379928 0.490744 0.000000 0.000000 0.000000 1.734739 3.645849 -4.627618 -2.807182 1.387181 -11.165485 6.670242 -47.477380 59.403576 0.000000 0.000000 0.000000 5.915282 9.649989 0.126887 12.882455 11.331047 13.827583 0.345697 -71.121794 -38.899356 0.000000 0.000000 0.000000 3.332763 -16.295810 -2.662175 -2.009806 42.577246 -8.315602 -7.111591 -14.901595 2.275283 0.000000 0.000000 0.000000 -1.128545 -0.937336 7.996018 0.341849 45.560652 -13.816435 -13.814748 5.299242 -5.457817 0.000000 0.000000 0.000000 
-2806.187012 846.685120 1053.078003 -12.951634 6.219366 -1.156496 -0.414505 8.326564 7.597094 0.511377 -1.324409 -1.472858 1.091527 1.561630 1.099857 0.320324 -5.685889 0.751421 0.000000 0.000000 0.000000 2.598941 2.986151 -4.211956 -2.912666 1.076498 -10.469593 6.628670 -43.654881 60.625792 0.000000 0.000000 0.000000 5.642026 8.365432 -0.226406 12.975406 10.402468 14.392619 0.111389 -69.188037 -39.830754 0.000000 0.000000 0.000000 3.210987 -15.656167 -2.543983 -2.239355 42.801907 -8.100915 -7.435952 -15.499467 2.356554 0.000000 0.000000 0.000000 -1.178952 -2.859499 9.763554 0.194750 50.101572 -14.430694 -15.955550 4.941032 -6.429915 0.000000 0.000000 0.000000 
-2798.335693 846.209961 1051.587036 -12.346206 6.248859 -0.796371 -0.786358 9.426370 6.900100 0.757930 -1.458024 -1.390280 1.437084 1.764687 0.999132 0.279105 -6.412718 1.210154 0.000000 0.000000 0.000000 3.482302 2.805606 -4.282702 -3.250486 1.310471 -9.959568 6.251974 -42.282269 60.833812 0.000000 0.000000 0.000000 5.144175 7.595466 -0.300115 12.916479 9.852288 14.539569 -0.103104 -67.939293 -39.761749 0.000000 0.000000 0.000000 3.475683 -15.880696 -2.726309 -2.259523 44.325838 -8.487589 -7.793351 -15.029760 2.138310 0.000000 0.000000 0.000000 -0.907581 -5.660052 10.949247 0.219375 55.515540 -14.411059 -17.357526 4.670050 -7.282928 0.000000 0.000000 0.000000 
-2792.163086 846.981140 1051.722046 -11.667351 6.236306 -0.207898 -1.294095 10.747284 5.749144 1.017113 -1.560441 -1.236020 1.779750 1.923838 0.819940 0.235761 -7.299525 1.761466 0.000000 0.000000 0.000000 4.322248 2.843809 -4.673053 -3.716635 1.853364 -9.471737 5.695811 -42.086241 60.497435 0.000000 0.000000 0.000000 4.502639 7.045660 -0.188763 12.812921 9.466232 14.470954 -0.294471 -66.962138 -39.245529 0.000000 0.000000 0.000000 3.871103 -16.521003 -3.027447 -2.236967 46.423061 -9.141949 -8.225436 -13.838831 1.693235 0.000000 0.000000 0.000000 -0.454016 -8.986462 11.769891 0.261552 61.137660 -13.867461 -17.937445 4.525506 -7.892256 0.000000 0.000000 0.000000 
-2786.255615 848.095337 1053.558960 -10.781972 6.214818 0.328213 -1.833736 11.734439 4.714667 1.154939 -1.617971 -1.078530 1.964256 1.992256 0.654806 0.175489 -7.750922 2.175623 0.000000 0.000000 0.000000 4.805612 2.731061 -4.900559 -4.011712 2.128601 -9.022829 5.309051 -41.409585 59.862932 0.000000 0.000000 0.000000 3.934801 6.507998 -0.098649 12.667501 9.055767 14.350641 -0.485038 -65.954987 -38.684209 0.000000 0.000000 0.000000 3.948291 -16.681775 -3.305608 -2.339150 47.527982 -9.736366 -8.508102 -12.521112 1.235994 0.000000 0.000000 0.000000 -0.011750 -12.196135 12.478384 0.144397 65.550567 -13.137285 -17.187568 4.093804 -7.634126 0.000000 0.000000 0.000000 
-2780.326904 849.036865 1057.599976 -9.401864 6.238776 0.755061 -2.459538 12.072772 3.928947 1.048870 -1.682336 -0.937149 1.883973 2.050201 0.546715 0.067909 -7.429372 2.422271 0.000000 0.000000 0.000000 4.730951 2.220821 -4.613740 -4.009664 1.684556 -8.763757 5.256842 -39.375437 58.993874 0.000000 0.000000 0.000000 3.461922 5.871746 -0.170760 12.491299 8.535230 14.295749 -0.672105 -64.886741 -38.102253 0.000000 0.000000 0.000000 3.441235 -16.014474 -3.478949 -2.735582 46.967781 -10.246151 -8.689456 -11.353484 0.806806 0.000000 0.000000 0.000000 0.444831 -15.359202 13.190397 -0.166450 68.579653 -12.270984 -14.687563 3.069376 -5.973985 0.000000 0.000000 0.000000 
